<?xml version="1.0" standalone="no"?>
<!DOCTYPE svg PUBLIC "-//W3C//DTD SVG 20010904//EN"
 "http://www.w3.org/TR/2001/REC-SVG-20010904/DTD/svg10.dtd">
<svg version="1.0" xmlns="http://www.w3.org/2000/svg"
 width="736.000000pt" height="920.000000pt" viewBox="0 0 736.000000 920.000000"
 preserveAspectRatio="xMidYMid meet">

<g transform="translate(0.000000,920.000000) scale(0.100000,-0.100000)"
fill="#000000" stroke="none">
<path d="M0 4600 l0 -4600 3680 0 3680 0 0 4600 0 4600 -3680 0 -3680 0 0
-4600z m4108 973 l-3 -358 -25 -53 c-21 -44 -139 -167 -685 -712 -582 -582
-661 -658 -672 -643 -10 13 -13 178 -13 745 0 654 2 729 16 735 11 4 64 -42
178 -156 159 -157 181 -173 216 -151 8 5 227 221 486 480 259 258 479 470 488
470 15 0 16 -28 14 -357z m533 -185 c7 -57 -5 -1475 -12 -1483 -6 -5 -69 51
-167 148 -164 164 -178 177 -202 177 -8 0 -233 -219 -501 -486 -282 -282 -492
-484 -498 -480 -8 5 -11 112 -11 351 0 326 1 347 21 402 20 55 56 93 682 721
364 364 667 662 674 662 7 0 14 -6 14 -12z"/>
</g>
</svg>
